# xmcd
# 
# Track frame offsets:
#     150
#     8719
#     22715
#     43889
#     64446
#     77684
#     89612
#     102346
#     118788
#     132581
# 
# Disc length: 2044
# 
# Revision: 2
# Processed by: cddbd v1.5.2PL0 Copyright (c) Steve Scherf et al.
# Submitted via: fre:ac v1.0.17
# 
DISCID=8307fa0a
DTITLE=ΕΛΕΥΘΕΡΙΑ ΑΡΒΑΝΙΤΑΚΗ - ΧΙΛΙΕΣ ΒΡΑΔΙΕΣ - ΘΕΜΑ
DYEAR=2009
DGENRE=GREEK
TTITLE0=ΟΜΟΡΦΗ ΜΟΥ ΑΓΑΠΗ
TTITLE1=ΤΙ ΛΕΙΠΕΙ
TTITLE2=ΕΦΥΓΕΣ ΝΩΡΙΣ
TTITLE3=ΕΡΩΤΙΚΟ
TTITLE4=ΣΤΗΝ ΑΡΧΗ ΤΟΥ ΤΡΑΓΟΥΔΙΟΥ
TTITLE5=ΣΤΙΣ ΑΚΡΕΣ ΑΠ' ΤΑ ΜΑΤΙΑ ΣΟΥ
TTITLE6=ΑΝΑΘΕΜΑ ΣΕ
TTITLE7=ΤΗΣ ΚΑΛΗΝΥΧΤΑΣ ΤΑ ΦΙΛΙΑ 
TTITLE8=ΣΙΓΑΝΟΨΥΧΑΛΙΣΜΑ
TTITLE9=ΝΑ ΜΕ ΘΥΜΑΣΑΙ
EXTD=YEAR: 2009
EXTT0=
EXTT1=
EXTT2=
EXTT3=
EXTT4=
EXTT5=
EXTT6=
EXTT7=
EXTT8=
EXTT9=
PLAYORDER=
